<?xml version="1.0" encoding="utf-8" standalone="no"?>
<!DOCTYPE svg PUBLIC "-//W3C//DTD SVG 1.1//EN"
  "http://www.w3.org/Graphics/SVG/1.1/DTD/svg11.dtd">
<!-- Created with matplotlib (https://matplotlib.org/) -->
<svg height="251.985937pt" version="1.1" viewBox="0 0 374.916406 251.985937" width="374.916406pt" xmlns="http://www.w3.org/2000/svg" xmlns:xlink="http://www.w3.org/1999/xlink">
 <metadata>
  <rdf:RDF xmlns:cc="http://creativecommons.org/ns#" xmlns:dc="http://purl.org/dc/elements/1.1/" xmlns:rdf="http://www.w3.org/1999/02/22-rdf-syntax-ns#">
   <cc:Work>
    <dc:type rdf:resource="http://purl.org/dc/dcmitype/StillImage"/>
    <dc:date>2021-06-02T16:10:20.519478</dc:date>
    <dc:format>image/svg+xml</dc:format>
    <dc:creator>
     <cc:Agent>
      <dc:title>Matplotlib v3.3.4, https://matplotlib.org/</dc:title>
     </cc:Agent>
    </dc:creator>
   </cc:Work>
  </rdf:RDF>
 </metadata>
 <defs>
  <style type="text/css">*{stroke-linecap:butt;stroke-linejoin:round;}</style>
 </defs>
 <g id="figure_1">
  <g id="patch_1">
   <path d="M 0 251.985937 
L 374.916406 251.985937 
L 374.916406 0 
L 0 0 
z
" style="fill:#ffffff;"/>
  </g>
  <g id="axes_1">
   <g id="patch_2">
    <path d="M 32.916406 224.64 
L 367.716406 224.64 
L 367.716406 7.2 
L 32.916406 7.2 
z
" style="fill:#eaeaf2;"/>
   </g>
   <g id="matplotlib.axis_1">
    <g id="xtick_1">
     <g id="line2d_1">
      <path clip-path="url(#p736ccea932)" d="M 49.479319 224.64 
L 49.479319 7.2 
" style="fill:none;stroke:#ffffff;stroke-linecap:round;"/>
     </g>
     <g id="text_1">
      <!-- −3 -->
      <g style="fill:#262626;" transform="translate(41.371116 242.498281)scale(0.11 -0.11)">
       <defs>
        <path d="M 10.59375 35.5 
L 73.1875 35.5 
L 73.1875 27.203125 
L 10.59375 27.203125 
z
" id="DejaVuSans-8722"/>
        <path d="M 40.578125 39.3125 
Q 47.65625 37.796875 51.625 33 
Q 55.609375 28.21875 55.609375 21.1875 
Q 55.609375 10.40625 48.1875 4.484375 
Q 40.765625 -1.421875 27.09375 -1.421875 
Q 22.515625 -1.421875 17.65625 -0.515625 
Q 12.796875 0.390625 7.625 2.203125 
L 7.625 11.71875 
Q 11.71875 9.328125 16.59375 8.109375 
Q 21.484375 6.890625 26.8125 6.890625 
Q 36.078125 6.890625 40.9375 10.546875 
Q 45.796875 14.203125 45.796875 21.1875 
Q 45.796875 27.640625 41.28125 31.265625 
Q 36.765625 34.90625 28.71875 34.90625 
L 20.21875 34.90625 
L 20.21875 43.015625 
L 29.109375 43.015625 
Q 36.375 43.015625 40.234375 45.921875 
Q 44.09375 48.828125 44.09375 54.296875 
Q 44.09375 59.90625 40.109375 62.90625 
Q 36.140625 65.921875 28.71875 65.921875 
Q 24.65625 65.921875 20.015625 65.03125 
Q 15.375 64.15625 9.8125 62.3125 
L 9.8125 71.09375 
Q 15.4375 72.65625 20.34375 73.4375 
Q 25.25 74.21875 29.59375 74.21875 
Q 40.828125 74.21875 47.359375 69.109375 
Q 53.90625 64.015625 53.90625 55.328125 
Q 53.90625 49.265625 50.4375 45.09375 
Q 46.96875 40.921875 40.578125 39.3125 
z
" id="DejaVuSans-51"/>
       </defs>
       <use xlink:href="#DejaVuSans-8722"/>
       <use x="83.789062" xlink:href="#DejaVuSans-51"/>
      </g>
     </g>
    </g>
    <g id="xtick_2">
     <g id="line2d_2">
      <path clip-path="url(#p736ccea932)" d="M 106.42878 224.64 
L 106.42878 7.2 
" style="fill:none;stroke:#ffffff;stroke-linecap:round;"/>
     </g>
     <g id="text_2">
      <!-- −2 -->
      <g style="fill:#262626;" transform="translate(98.320577 242.498281)scale(0.11 -0.11)">
       <defs>
        <path d="M 19.1875 8.296875 
L 53.609375 8.296875 
L 53.609375 0 
L 7.328125 0 
L 7.328125 8.296875 
Q 12.9375 14.109375 22.625 23.890625 
Q 32.328125 33.6875 34.8125 36.53125 
Q 39.546875 41.84375 41.421875 45.53125 
Q 43.3125 49.21875 43.3125 52.78125 
Q 43.3125 58.59375 39.234375 62.25 
Q 35.15625 65.921875 28.609375 65.921875 
Q 23.96875 65.921875 18.8125 64.3125 
Q 13.671875 62.703125 7.8125 59.421875 
L 7.8125 69.390625 
Q 13.765625 71.78125 18.9375 73 
Q 24.125 74.21875 28.421875 74.21875 
Q 39.75 74.21875 46.484375 68.546875 
Q 53.21875 62.890625 53.21875 53.421875 
Q 53.21875 48.921875 51.53125 44.890625 
Q 49.859375 40.875 45.40625 35.40625 
Q 44.1875 33.984375 37.640625 27.21875 
Q 31.109375 20.453125 19.1875 8.296875 
z
" id="DejaVuSans-50"/>
       </defs>
       <use xlink:href="#DejaVuSans-8722"/>
       <use x="83.789062" xlink:href="#DejaVuSans-50"/>
      </g>
     </g>
    </g>
    <g id="xtick_3">
     <g id="line2d_3">
      <path clip-path="url(#p736ccea932)" d="M 163.378242 224.64 
L 163.378242 7.2 
" style="fill:none;stroke:#ffffff;stroke-linecap:round;"/>
     </g>
     <g id="text_3">
      <!-- −1 -->
      <g style="fill:#262626;" transform="translate(155.270039 242.498281)scale(0.11 -0.11)">
       <defs>
        <path d="M 12.40625 8.296875 
L 28.515625 8.296875 
L 28.515625 63.921875 
L 10.984375 60.40625 
L 10.984375 69.390625 
L 28.421875 72.90625 
L 38.28125 72.90625 
L 38.28125 8.296875 
L 54.390625 8.296875 
L 54.390625 0 
L 12.40625 0 
z
" id="DejaVuSans-49"/>
       </defs>
       <use xlink:href="#DejaVuSans-8722"/>
       <use x="83.789062" xlink:href="#DejaVuSans-49"/>
      </g>
     </g>
    </g>
    <g id="xtick_4">
     <g id="line2d_4">
      <path clip-path="url(#p736ccea932)" d="M 220.327704 224.64 
L 220.327704 7.2 
" style="fill:none;stroke:#ffffff;stroke-linecap:round;"/>
     </g>
     <g id="text_4">
      <!-- 0 -->
      <g style="fill:#262626;" transform="translate(216.828329 242.498281)scale(0.11 -0.11)">
       <defs>
        <path d="M 31.78125 66.40625 
Q 24.171875 66.40625 20.328125 58.90625 
Q 16.5 51.421875 16.5 36.375 
Q 16.5 21.390625 20.328125 13.890625 
Q 24.171875 6.390625 31.78125 6.390625 
Q 39.453125 6.390625 43.28125 13.890625 
Q 47.125 21.390625 47.125 36.375 
Q 47.125 51.421875 43.28125 58.90625 
Q 39.453125 66.40625 31.78125 66.40625 
z
M 31.78125 74.21875 
Q 44.046875 74.21875 50.515625 64.515625 
Q 56.984375 54.828125 56.984375 36.375 
Q 56.984375 17.96875 50.515625 8.265625 
Q 44.046875 -1.421875 31.78125 -1.421875 
Q 19.53125 -1.421875 13.0625 8.265625 
Q 6.59375 17.96875 6.59375 36.375 
Q 6.59375 54.828125 13.0625 64.515625 
Q 19.53125 74.21875 31.78125 74.21875 
z
" id="DejaVuSans-48"/>
       </defs>
       <use xlink:href="#DejaVuSans-48"/>
      </g>
     </g>
    </g>
    <g id="xtick_5">
     <g id="line2d_5">
      <path clip-path="url(#p736ccea932)" d="M 277.277165 224.64 
L 277.277165 7.2 
" style="fill:none;stroke:#ffffff;stroke-linecap:round;"/>
     </g>
     <g id="text_5">
      <!-- 1 -->
      <g style="fill:#262626;" transform="translate(273.77779 242.498281)scale(0.11 -0.11)">
       <use xlink:href="#DejaVuSans-49"/>
      </g>
     </g>
    </g>
    <g id="xtick_6">
     <g id="line2d_6">
      <path clip-path="url(#p736ccea932)" d="M 334.226627 224.64 
L 334.226627 7.2 
" style="fill:none;stroke:#ffffff;stroke-linecap:round;"/>
     </g>
     <g id="text_6">
      <!-- 2 -->
      <g style="fill:#262626;" transform="translate(330.727252 242.498281)scale(0.11 -0.11)">
       <use xlink:href="#DejaVuSans-50"/>
      </g>
     </g>
    </g>
   </g>
   <g id="matplotlib.axis_2">
    <g id="ytick_1">
     <g id="line2d_7">
      <path clip-path="url(#p736ccea932)" d="M 32.916406 219.571552 
L 367.716406 219.571552 
" style="fill:none;stroke:#ffffff;stroke-linecap:round;"/>
     </g>
     <g id="text_7">
      <!-- −8 -->
      <g style="fill:#262626;" transform="translate(7.2 223.750693)scale(0.11 -0.11)">
       <defs>
        <path d="M 31.78125 34.625 
Q 24.75 34.625 20.71875 30.859375 
Q 16.703125 27.09375 16.703125 20.515625 
Q 16.703125 13.921875 20.71875 10.15625 
Q 24.75 6.390625 31.78125 6.390625 
Q 38.8125 6.390625 42.859375 10.171875 
Q 46.921875 13.96875 46.921875 20.515625 
Q 46.921875 27.09375 42.890625 30.859375 
Q 38.875 34.625 31.78125 34.625 
z
M 21.921875 38.8125 
Q 15.578125 40.375 12.03125 44.71875 
Q 8.5 49.078125 8.5 55.328125 
Q 8.5 64.0625 14.71875 69.140625 
Q 20.953125 74.21875 31.78125 74.21875 
Q 42.671875 74.21875 48.875 69.140625 
Q 55.078125 64.0625 55.078125 55.328125 
Q 55.078125 49.078125 51.53125 44.71875 
Q 48 40.375 41.703125 38.8125 
Q 48.828125 37.15625 52.796875 32.3125 
Q 56.78125 27.484375 56.78125 20.515625 
Q 56.78125 9.90625 50.3125 4.234375 
Q 43.84375 -1.421875 31.78125 -1.421875 
Q 19.734375 -1.421875 13.25 4.234375 
Q 6.78125 9.90625 6.78125 20.515625 
Q 6.78125 27.484375 10.78125 32.3125 
Q 14.796875 37.15625 21.921875 38.8125 
z
M 18.3125 54.390625 
Q 18.3125 48.734375 21.84375 45.5625 
Q 25.390625 42.390625 31.78125 42.390625 
Q 38.140625 42.390625 41.71875 45.5625 
Q 45.3125 48.734375 45.3125 54.390625 
Q 45.3125 60.0625 41.71875 63.234375 
Q 38.140625 66.40625 31.78125 66.40625 
Q 25.390625 66.40625 21.84375 63.234375 
Q 18.3125 60.0625 18.3125 54.390625 
z
" id="DejaVuSans-56"/>
       </defs>
       <use xlink:href="#DejaVuSans-8722"/>
       <use x="83.789062" xlink:href="#DejaVuSans-56"/>
      </g>
     </g>
    </g>
    <g id="ytick_2">
     <g id="line2d_8">
      <path clip-path="url(#p736ccea932)" d="M 32.916406 190.598735 
L 367.716406 190.598735 
" style="fill:none;stroke:#ffffff;stroke-linecap:round;"/>
     </g>
     <g id="text_8">
      <!-- −6 -->
      <g style="fill:#262626;" transform="translate(7.2 194.777876)scale(0.11 -0.11)">
       <defs>
        <path d="M 33.015625 40.375 
Q 26.375 40.375 22.484375 35.828125 
Q 18.609375 31.296875 18.609375 23.390625 
Q 18.609375 15.53125 22.484375 10.953125 
Q 26.375 6.390625 33.015625 6.390625 
Q 39.65625 6.390625 43.53125 10.953125 
Q 47.40625 15.53125 47.40625 23.390625 
Q 47.40625 31.296875 43.53125 35.828125 
Q 39.65625 40.375 33.015625 40.375 
z
M 52.59375 71.296875 
L 52.59375 62.3125 
Q 48.875 64.0625 45.09375 64.984375 
Q 41.3125 65.921875 37.59375 65.921875 
Q 27.828125 65.921875 22.671875 59.328125 
Q 17.53125 52.734375 16.796875 39.40625 
Q 19.671875 43.65625 24.015625 45.921875 
Q 28.375 48.1875 33.59375 48.1875 
Q 44.578125 48.1875 50.953125 41.515625 
Q 57.328125 34.859375 57.328125 23.390625 
Q 57.328125 12.15625 50.6875 5.359375 
Q 44.046875 -1.421875 33.015625 -1.421875 
Q 20.359375 -1.421875 13.671875 8.265625 
Q 6.984375 17.96875 6.984375 36.375 
Q 6.984375 53.65625 15.1875 63.9375 
Q 23.390625 74.21875 37.203125 74.21875 
Q 40.921875 74.21875 44.703125 73.484375 
Q 48.484375 72.75 52.59375 71.296875 
z
" id="DejaVuSans-54"/>
       </defs>
       <use xlink:href="#DejaVuSans-8722"/>
       <use x="83.789062" xlink:href="#DejaVuSans-54"/>
      </g>
     </g>
    </g>
    <g id="ytick_3">
     <g id="line2d_9">
      <path clip-path="url(#p736ccea932)" d="M 32.916406 161.625918 
L 367.716406 161.625918 
" style="fill:none;stroke:#ffffff;stroke-linecap:round;"/>
     </g>
     <g id="text_9">
      <!-- −4 -->
      <g style="fill:#262626;" transform="translate(7.2 165.805059)scale(0.11 -0.11)">
       <defs>
        <path d="M 37.796875 64.3125 
L 12.890625 25.390625 
L 37.796875 25.390625 
z
M 35.203125 72.90625 
L 47.609375 72.90625 
L 47.609375 25.390625 
L 58.015625 25.390625 
L 58.015625 17.1875 
L 47.609375 17.1875 
L 47.609375 0 
L 37.796875 0 
L 37.796875 17.1875 
L 4.890625 17.1875 
L 4.890625 26.703125 
z
" id="DejaVuSans-52"/>
       </defs>
       <use xlink:href="#DejaVuSans-8722"/>
       <use x="83.789062" xlink:href="#DejaVuSans-52"/>
      </g>
     </g>
    </g>
    <g id="ytick_4">
     <g id="line2d_10">
      <path clip-path="url(#p736ccea932)" d="M 32.916406 132.653102 
L 367.716406 132.653102 
" style="fill:none;stroke:#ffffff;stroke-linecap:round;"/>
     </g>
     <g id="text_10">
      <!-- −2 -->
      <g style="fill:#262626;" transform="translate(7.2 136.832242)scale(0.11 -0.11)">
       <use xlink:href="#DejaVuSans-8722"/>
       <use x="83.789062" xlink:href="#DejaVuSans-50"/>
      </g>
     </g>
    </g>
    <g id="ytick_5">
     <g id="line2d_11">
      <path clip-path="url(#p736ccea932)" d="M 32.916406 103.680285 
L 367.716406 103.680285 
" style="fill:none;stroke:#ffffff;stroke-linecap:round;"/>
     </g>
     <g id="text_11">
      <!-- 0 -->
      <g style="fill:#262626;" transform="translate(16.417656 107.859426)scale(0.11 -0.11)">
       <use xlink:href="#DejaVuSans-48"/>
      </g>
     </g>
    </g>
    <g id="ytick_6">
     <g id="line2d_12">
      <path clip-path="url(#p736ccea932)" d="M 32.916406 74.707468 
L 367.716406 74.707468 
" style="fill:none;stroke:#ffffff;stroke-linecap:round;"/>
     </g>
     <g id="text_12">
      <!-- 2 -->
      <g style="fill:#262626;" transform="translate(16.417656 78.886609)scale(0.11 -0.11)">
       <use xlink:href="#DejaVuSans-50"/>
      </g>
     </g>
    </g>
    <g id="ytick_7">
     <g id="line2d_13">
      <path clip-path="url(#p736ccea932)" d="M 32.916406 45.734652 
L 367.716406 45.734652 
" style="fill:none;stroke:#ffffff;stroke-linecap:round;"/>
     </g>
     <g id="text_13">
      <!-- 4 -->
      <g style="fill:#262626;" transform="translate(16.417656 49.913792)scale(0.11 -0.11)">
       <use xlink:href="#DejaVuSans-52"/>
      </g>
     </g>
    </g>
    <g id="ytick_8">
     <g id="line2d_14">
      <path clip-path="url(#p736ccea932)" d="M 32.916406 16.761835 
L 367.716406 16.761835 
" style="fill:none;stroke:#ffffff;stroke-linecap:round;"/>
     </g>
     <g id="text_14">
      <!-- 6 -->
      <g style="fill:#262626;" transform="translate(16.417656 20.940976)scale(0.11 -0.11)">
       <use xlink:href="#DejaVuSans-54"/>
      </g>
     </g>
    </g>
   </g>
   <g id="PathCollection_1">
    <defs>
     <path d="M 0 3 
C 0.795609 3 1.55874 2.683901 2.12132 2.12132 
C 2.683901 1.55874 3 0.795609 3 0 
C 3 -0.795609 2.683901 -1.55874 2.12132 -2.12132 
C 1.55874 -2.683901 0.795609 -3 0 -3 
C -0.795609 -3 -1.55874 -2.683901 -2.12132 -2.12132 
C -2.683901 -1.55874 -3 -0.795609 -3 0 
C -3 0.795609 -2.683901 1.55874 -2.12132 2.12132 
C -1.55874 2.683901 -0.795609 3 0 3 
z
" id="ma7f898b862" style="stroke:#4c72b0;"/>
    </defs>
    <g clip-path="url(#p736ccea932)">
     <use style="fill:#4c72b0;stroke:#4c72b0;" x="183.62332" xlink:href="#ma7f898b862" y="110.375991"/>
     <use style="fill:#4c72b0;stroke:#4c72b0;" x="262.335631" xlink:href="#ma7f898b862" y="86.11741"/>
     <use style="fill:#4c72b0;stroke:#4c72b0;" x="270.529658" xlink:href="#ma7f898b862" y="87.340315"/>
     <use style="fill:#4c72b0;stroke:#4c72b0;" x="337.073521" xlink:href="#ma7f898b862" y="17.083636"/>
     <use style="fill:#4c72b0;stroke:#4c72b0;" x="210.581669" xlink:href="#ma7f898b862" y="133.559769"/>
     <use style="fill:#4c72b0;stroke:#4c72b0;" x="259.028837" xlink:href="#ma7f898b862" y="91.554419"/>
     <use style="fill:#4c72b0;stroke:#4c72b0;" x="303.963815" xlink:href="#ma7f898b862" y="85.867639"/>
     <use style="fill:#4c72b0;stroke:#4c72b0;" x="240.420687" xlink:href="#ma7f898b862" y="81.968723"/>
     <use style="fill:#4c72b0;stroke:#4c72b0;" x="77.069906" xlink:href="#ma7f898b862" y="185.474892"/>
     <use style="fill:#4c72b0;stroke:#4c72b0;" x="225.130417" xlink:href="#ma7f898b862" y="108.812905"/>
     <use style="fill:#4c72b0;stroke:#4c72b0;" x="231.261586" xlink:href="#ma7f898b862" y="82.109836"/>
     <use style="fill:#4c72b0;stroke:#4c72b0;" x="218.866257" xlink:href="#ma7f898b862" y="114.543337"/>
     <use style="fill:#4c72b0;stroke:#4c72b0;" x="277.601337" xlink:href="#ma7f898b862" y="71.044245"/>
     <use style="fill:#4c72b0;stroke:#4c72b0;" x="248.52581" xlink:href="#ma7f898b862" y="86.450198"/>
     <use style="fill:#4c72b0;stroke:#4c72b0;" x="223.914791" xlink:href="#ma7f898b862" y="95.372435"/>
     <use style="fill:#4c72b0;stroke:#4c72b0;" x="263.09278" xlink:href="#ma7f898b862" y="60.295375"/>
     <use style="fill:#4c72b0;stroke:#4c72b0;" x="48.134588" xlink:href="#ma7f898b862" y="190.709708"/>
     <use style="fill:#4c72b0;stroke:#4c72b0;" x="189.60741" xlink:href="#ma7f898b862" y="108.71996"/>
     <use style="fill:#4c72b0;stroke:#4c72b0;" x="307.925871" xlink:href="#ma7f898b862" y="74.711312"/>
     <use style="fill:#4c72b0;stroke:#4c72b0;" x="191.34794" xlink:href="#ma7f898b862" y="129.915121"/>
     <use style="fill:#4c72b0;stroke:#4c72b0;" x="310.373688" xlink:href="#ma7f898b862" y="62.189717"/>
     <use style="fill:#4c72b0;stroke:#4c72b0;" x="276.881391" xlink:href="#ma7f898b862" y="66.842209"/>
     <use style="fill:#4c72b0;stroke:#4c72b0;" x="170.352389" xlink:href="#ma7f898b862" y="120.450795"/>
     <use style="fill:#4c72b0;stroke:#4c72b0;" x="156.818775" xlink:href="#ma7f898b862" y="130.843461"/>
     <use style="fill:#4c72b0;stroke:#4c72b0;" x="244.815448" xlink:href="#ma7f898b862" y="98.418205"/>
     <use style="fill:#4c72b0;stroke:#4c72b0;" x="275.713064" xlink:href="#ma7f898b862" y="52.425096"/>
     <use style="fill:#4c72b0;stroke:#4c72b0;" x="238.622716" xlink:href="#ma7f898b862" y="98.879919"/>
     <use style="fill:#4c72b0;stroke:#4c72b0;" x="177.832785" xlink:href="#ma7f898b862" y="143.860755"/>
     <use style="fill:#4c72b0;stroke:#4c72b0;" x="169.942264" xlink:href="#ma7f898b862" y="129.972456"/>
     <use style="fill:#4c72b0;stroke:#4c72b0;" x="276.584581" xlink:href="#ma7f898b862" y="70.320926"/>
     <use style="fill:#4c72b0;stroke:#4c72b0;" x="151.796869" xlink:href="#ma7f898b862" y="133.290899"/>
     <use style="fill:#4c72b0;stroke:#4c72b0;" x="134.276073" xlink:href="#ma7f898b862" y="151.222853"/>
     <use style="fill:#4c72b0;stroke:#4c72b0;" x="62.954861" xlink:href="#ma7f898b862" y="214.756364"/>
     <use style="fill:#4c72b0;stroke:#4c72b0;" x="242.628288" xlink:href="#ma7f898b862" y="90.939601"/>
     <use style="fill:#4c72b0;stroke:#4c72b0;" x="272.254806" xlink:href="#ma7f898b862" y="55.445044"/>
     <use style="fill:#4c72b0;stroke:#4c72b0;" x="172.37476" xlink:href="#ma7f898b862" y="132.830784"/>
     <use style="fill:#4c72b0;stroke:#4c72b0;" x="281.028356" xlink:href="#ma7f898b862" y="89.845762"/>
     <use style="fill:#4c72b0;stroke:#4c72b0;" x="245.645932" xlink:href="#ma7f898b862" y="76.470711"/>
     <use style="fill:#4c72b0;stroke:#4c72b0;" x="240.793473" xlink:href="#ma7f898b862" y="97.805326"/>
     <use style="fill:#4c72b0;stroke:#4c72b0;" x="168.703205" xlink:href="#ma7f898b862" y="117.223113"/>
     <use style="fill:#4c72b0;stroke:#4c72b0;" x="199.94527" xlink:href="#ma7f898b862" y="111.265805"/>
     <use style="fill:#4c72b0;stroke:#4c72b0;" x="144.322002" xlink:href="#ma7f898b862" y="147.603541"/>
     <use style="fill:#4c72b0;stroke:#4c72b0;" x="221.930909" xlink:href="#ma7f898b862" y="92.141148"/>
     <use style="fill:#4c72b0;stroke:#4c72b0;" x="241.84641" xlink:href="#ma7f898b862" y="96.232912"/>
     <use style="fill:#4c72b0;stroke:#4c72b0;" x="159.673624" xlink:href="#ma7f898b862" y="145.506425"/>
     <use style="fill:#4c72b0;stroke:#4c72b0;" x="352.498224" xlink:href="#ma7f898b862" y="17.095218"/>
     <use style="fill:#4c72b0;stroke:#4c72b0;" x="247.438918" xlink:href="#ma7f898b862" y="91.564652"/>
     <use style="fill:#4c72b0;stroke:#4c72b0;" x="200.115779" xlink:href="#ma7f898b862" y="118.696479"/>
     <use style="fill:#4c72b0;stroke:#4c72b0;" x="253.092371" xlink:href="#ma7f898b862" y="115.268995"/>
     <use style="fill:#4c72b0;stroke:#4c72b0;" x="239.348774" xlink:href="#ma7f898b862" y="69.9852"/>
     <use style="fill:#4c72b0;stroke:#4c72b0;" x="257.77546" xlink:href="#ma7f898b862" y="106.923722"/>
     <use style="fill:#4c72b0;stroke:#4c72b0;" x="298.390409" xlink:href="#ma7f898b862" y="71.304856"/>
     <use style="fill:#4c72b0;stroke:#4c72b0;" x="224.370858" xlink:href="#ma7f898b862" y="107.980643"/>
     <use style="fill:#4c72b0;stroke:#4c72b0;" x="254.924404" xlink:href="#ma7f898b862" y="82.372338"/>
     <use style="fill:#4c72b0;stroke:#4c72b0;" x="200.836109" xlink:href="#ma7f898b862" y="119.711848"/>
     <use style="fill:#4c72b0;stroke:#4c72b0;" x="259.751678" xlink:href="#ma7f898b862" y="86.078676"/>
     <use style="fill:#4c72b0;stroke:#4c72b0;" x="202.609053" xlink:href="#ma7f898b862" y="114.677221"/>
     <use style="fill:#4c72b0;stroke:#4c72b0;" x="205.014946" xlink:href="#ma7f898b862" y="131.112735"/>
     <use style="fill:#4c72b0;stroke:#4c72b0;" x="244.272046" xlink:href="#ma7f898b862" y="76.852975"/>
     <use style="fill:#4c72b0;stroke:#4c72b0;" x="232.352722" xlink:href="#ma7f898b862" y="74.594258"/>
     <use style="fill:#4c72b0;stroke:#4c72b0;" x="116.049798" xlink:href="#ma7f898b862" y="145.886847"/>
     <use style="fill:#4c72b0;stroke:#4c72b0;" x="264.98631" xlink:href="#ma7f898b862" y="75.049239"/>
     <use style="fill:#4c72b0;stroke:#4c72b0;" x="226.170327" xlink:href="#ma7f898b862" y="85.617099"/>
     <use style="fill:#4c72b0;stroke:#4c72b0;" x="111.496964" xlink:href="#ma7f898b862" y="156.816565"/>
     <use style="fill:#4c72b0;stroke:#4c72b0;" x="227.813002" xlink:href="#ma7f898b862" y="104.815129"/>
     <use style="fill:#4c72b0;stroke:#4c72b0;" x="212.827203" xlink:href="#ma7f898b862" y="127.461051"/>
     <use style="fill:#4c72b0;stroke:#4c72b0;" x="212.043105" xlink:href="#ma7f898b862" y="123.110278"/>
     <use style="fill:#4c72b0;stroke:#4c72b0;" x="191.185313" xlink:href="#ma7f898b862" y="124.100438"/>
     <use style="fill:#4c72b0;stroke:#4c72b0;" x="260.054534" xlink:href="#ma7f898b862" y="93.168419"/>
     <use style="fill:#4c72b0;stroke:#4c72b0;" x="226.977739" xlink:href="#ma7f898b862" y="90.87645"/>
     <use style="fill:#4c72b0;stroke:#4c72b0;" x="153.932351" xlink:href="#ma7f898b862" y="136.199699"/>
     <use style="fill:#4c72b0;stroke:#4c72b0;" x="93.230039" xlink:href="#ma7f898b862" y="141.918333"/>
     <use style="fill:#4c72b0;stroke:#4c72b0;" x="241.887194" xlink:href="#ma7f898b862" y="93.668352"/>
     <use style="fill:#4c72b0;stroke:#4c72b0;" x="270.144429" xlink:href="#ma7f898b862" y="54.416718"/>
     <use style="fill:#4c72b0;stroke:#4c72b0;" x="170.858915" xlink:href="#ma7f898b862" y="147.656436"/>
     <use style="fill:#4c72b0;stroke:#4c72b0;" x="161.306502" xlink:href="#ma7f898b862" y="120.842206"/>
     <use style="fill:#4c72b0;stroke:#4c72b0;" x="189.953732" xlink:href="#ma7f898b862" y="109.046038"/>
     <use style="fill:#4c72b0;stroke:#4c72b0;" x="237.64863" xlink:href="#ma7f898b862" y="112.123571"/>
     <use style="fill:#4c72b0;stroke:#4c72b0;" x="136.238033" xlink:href="#ma7f898b862" y="134.543042"/>
     <use style="fill:#4c72b0;stroke:#4c72b0;" x="202.484286" xlink:href="#ma7f898b862" y="129.604615"/>
     <use style="fill:#4c72b0;stroke:#4c72b0;" x="284.486704" xlink:href="#ma7f898b862" y="82.004629"/>
     <use style="fill:#4c72b0;stroke:#4c72b0;" x="152.172981" xlink:href="#ma7f898b862" y="125.646525"/>
     <use style="fill:#4c72b0;stroke:#4c72b0;" x="177.495926" xlink:href="#ma7f898b862" y="115.236171"/>
     <use style="fill:#4c72b0;stroke:#4c72b0;" x="262.799298" xlink:href="#ma7f898b862" y="75.310907"/>
     <use style="fill:#4c72b0;stroke:#4c72b0;" x="309.222598" xlink:href="#ma7f898b862" y="61.190467"/>
     <use style="fill:#4c72b0;stroke:#4c72b0;" x="179.318416" xlink:href="#ma7f898b862" y="132.621371"/>
     <use style="fill:#4c72b0;stroke:#4c72b0;" x="144.972653" xlink:href="#ma7f898b862" y="141.521441"/>
     <use style="fill:#4c72b0;stroke:#4c72b0;" x="74.41412" xlink:href="#ma7f898b862" y="191.817164"/>
     <use style="fill:#4c72b0;stroke:#4c72b0;" x="295.077458" xlink:href="#ma7f898b862" y="58.317072"/>
     <use style="fill:#4c72b0;stroke:#4c72b0;" x="249.699948" xlink:href="#ma7f898b862" y="70.320312"/>
     <use style="fill:#4c72b0;stroke:#4c72b0;" x="221.110595" xlink:href="#ma7f898b862" y="105.351922"/>
     <use style="fill:#4c72b0;stroke:#4c72b0;" x="210.724157" xlink:href="#ma7f898b862" y="97.969402"/>
     <use style="fill:#4c72b0;stroke:#4c72b0;" x="227.199027" xlink:href="#ma7f898b862" y="87.276409"/>
     <use style="fill:#4c72b0;stroke:#4c72b0;" x="172.772065" xlink:href="#ma7f898b862" y="138.249493"/>
     <use style="fill:#4c72b0;stroke:#4c72b0;" x="280.230499" xlink:href="#ma7f898b862" y="74.936611"/>
     <use style="fill:#4c72b0;stroke:#4c72b0;" x="180.950253" xlink:href="#ma7f898b862" y="126.412339"/>
     <use style="fill:#4c72b0;stroke:#4c72b0;" x="148.755881" xlink:href="#ma7f898b862" y="119.990503"/>
     <use style="fill:#4c72b0;stroke:#4c72b0;" x="225.805862" xlink:href="#ma7f898b862" y="113.000199"/>
     <use style="fill:#4c72b0;stroke:#4c72b0;" x="163.572617" xlink:href="#ma7f898b862" y="137.728864"/>
     <use style="fill:#4c72b0;stroke:#4c72b0;" x="151.188062" xlink:href="#ma7f898b862" y="129.421724"/>
    </g>
   </g>
   <g id="patch_3">
    <path d="M 32.916406 224.64 
L 32.916406 7.2 
" style="fill:none;stroke:#ffffff;stroke-linecap:square;stroke-linejoin:miter;stroke-width:1.25;"/>
   </g>
   <g id="patch_4">
    <path d="M 367.716406 224.64 
L 367.716406 7.2 
" style="fill:none;stroke:#ffffff;stroke-linecap:square;stroke-linejoin:miter;stroke-width:1.25;"/>
   </g>
   <g id="patch_5">
    <path d="M 32.916406 224.64 
L 367.716406 224.64 
" style="fill:none;stroke:#ffffff;stroke-linecap:square;stroke-linejoin:miter;stroke-width:1.25;"/>
   </g>
   <g id="patch_6">
    <path d="M 32.916406 7.2 
L 367.716406 7.2 
" style="fill:none;stroke:#ffffff;stroke-linecap:square;stroke-linejoin:miter;stroke-width:1.25;"/>
   </g>
  </g>
 </g>
 <defs>
  <clipPath id="p736ccea932">
   <rect height="217.44" width="334.8" x="32.916406" y="7.2"/>
  </clipPath>
 </defs>
</svg>
